<svg width="175" height="30" xmlns="http://www.w3.org/2000/svg" viewBox="47.02873535156252 8.581250000000011 405.94252929687497 132.83749999999998" preserveAspectRatio="xMidYMid"><defs><filter id="editing-hole" x="-100%" y="-100%" width="300%" height="300%"><feFlood flood-color="#000" result="black"></feFlood><feMorphology operator="dilate" radius="2" in="SourceGraphic" result="erode"></feMorphology><feGaussianBlur in="erode" stdDeviation="4" result="blur"></feGaussianBlur><feOffset in="blur" dx="2" dy="2" result="offset"></feOffset><feComposite operator="atop" in="offset" in2="black" result="merge"></feComposite><feComposite operator="in" in="merge" in2="SourceGraphic" result="inner-shadow"></feComposite></filter></defs><g filter="url(#editing-hole)"><g transform="translate(107.47999453544617, 100.68499946594238)"><path d="M33.22-44.88L31.60-41.71L31.60-41.71Q31.29-41.19 30.93-40.93L30.93-40.93L30.93-40.93Q30.57-40.68 30.05-40.68L30.05-40.68L30.05-40.68Q29.46-40.68 28.67-41.26L28.67-41.26L28.67-41.26Q27.88-41.85 26.69-42.56L26.69-42.56L26.69-42.56Q25.50-43.26 23.82-43.85L23.82-43.85L23.82-43.85Q22.15-44.44 19.77-44.44L19.77-44.44L19.77-44.44Q17.53-44.44 15.82-43.83L15.82-43.83L15.82-43.83Q14.11-43.23 12.95-42.19L12.95-42.19L12.95-42.19Q11.80-41.16 11.21-39.76L11.21-39.76L11.21-39.76Q10.63-38.36 10.63-36.74L10.63-36.74L10.63-36.74Q10.63-34.67 11.64-33.31L11.64-33.31L11.64-33.31Q12.66-31.95 14.33-30.98L14.33-30.98L14.33-30.98Q16.01-30.02 18.13-29.31L18.13-29.31L18.13-29.31Q20.25-28.60 22.48-27.84L22.48-27.84L22.48-27.84Q24.70-27.08 26.82-26.13L26.82-26.13L26.82-26.13Q28.95-25.19 30.62-23.74L30.62-23.74L30.62-23.74Q32.29-22.29 33.31-20.18L33.31-20.18L33.31-20.18Q34.33-18.08 34.33-15.01L34.33-15.01L34.33-15.01Q34.33-11.76 33.22-8.92L33.22-8.92L33.22-8.92Q32.12-6.07 30.00-3.97L30.00-3.97L30.00-3.97Q27.88-1.86 24.79-0.66L24.79-0.66L24.79-0.66Q21.70 0.55 17.77 0.55L17.77 0.55L17.77 0.55Q12.94 0.55 9.00-1.19L9.00-1.19L9.00-1.19Q5.07-2.93 2.28-5.90L2.28-5.90L4.21-9.07L4.21-9.07Q4.49-9.45 4.88-9.71L4.88-9.71L4.88-9.71Q5.28-9.97 5.76-9.97L5.76-9.97L5.76-9.97Q6.21-9.97 6.78-9.61L6.78-9.61L6.78-9.61Q7.35-9.25 8.07-8.69L8.07-8.69L8.07-8.69Q8.80-8.14 9.73-7.49L9.73-7.49L9.73-7.49Q10.66-6.83 11.85-6.28L11.85-6.28L11.85-6.28Q13.04-5.73 14.56-5.36L14.56-5.36L14.56-5.36Q16.08-5.00 17.97-5.00L17.97-5.00L17.97-5.00Q20.36-5.00 22.22-5.66L22.22-5.66L22.22-5.66Q24.08-6.31 25.37-7.50L25.37-7.50L25.37-7.50Q26.67-8.69 27.36-10.35L27.36-10.35L27.36-10.35Q28.05-12.01 28.05-14.04L28.05-14.04L28.05-14.04Q28.05-16.28 27.03-17.72L27.03-17.72L27.03-17.72Q26.01-19.15 24.36-20.11L24.36-20.11L24.36-20.11Q22.70-21.08 20.56-21.75L20.56-21.75L20.56-21.75Q18.42-22.43 16.21-23.13L16.21-23.13L16.21-23.13Q14.01-23.84 11.87-24.77L11.87-24.77L11.87-24.77Q9.73-25.70 8.07-27.19L8.07-27.19L8.07-27.19Q6.42-28.67 5.40-30.89L5.40-30.89L5.40-30.89Q4.38-33.12 4.38-36.40L4.38-36.40L4.38-36.40Q4.38-39.02 5.40-41.47L5.40-41.47L5.40-41.47Q6.42-43.92 8.37-45.82L8.37-45.82L8.37-45.82Q10.32-47.71 13.16-48.85L13.16-48.85L13.16-48.85Q16.01-49.99 19.70-49.99L19.70-49.99L19.70-49.99Q23.84-49.99 27.24-48.68L27.24-48.68L27.24-48.68Q30.64-47.37 33.22-44.88L33.22-44.88ZM57.03-35.50L57.03-35.50L57.03-35.50Q60.86-35.50 63.93-34.22L63.93-34.22L63.93-34.22Q67.00-32.95 69.17-30.60L69.17-30.60L69.17-30.60Q71.35-28.26 72.50-24.93L72.50-24.93L72.50-24.93Q73.66-21.60 73.66-17.49L73.66-17.49L73.66-17.49Q73.66-13.35 72.50-10.04L72.50-10.04L72.50-10.04Q71.35-6.73 69.17-4.38L69.17-4.38L69.17-4.38Q67.00-2.04 63.93-0.78L63.93-0.78L63.93-0.78Q60.86 0.48 57.03 0.48L57.03 0.48L57.03 0.48Q53.16 0.48 50.08-0.78L50.08-0.78L50.08-0.78Q46.99-2.04 44.82-4.38L44.82-4.38L44.82-4.38Q42.64-6.73 41.49-10.04L41.49-10.04L41.49-10.04Q40.33-13.35 40.33-17.49L40.33-17.49L40.33-17.49Q40.33-21.60 41.49-24.93L41.49-24.93L41.49-24.93Q42.64-28.26 44.82-30.60L44.82-30.60L44.82-30.60Q46.99-32.95 50.08-34.22L50.08-34.22L50.08-34.22Q53.16-35.50 57.03-35.50ZM57.03-4.31L57.03-4.31L57.03-4.31Q62.20-4.31 64.76-7.78L64.76-7.78L64.76-7.78Q67.31-11.25 67.31-17.46L67.31-17.46L67.31-17.46Q67.31-23.70 64.76-27.19L64.76-27.19L64.76-27.19Q62.20-30.67 57.03-30.67L57.03-30.67L57.03-30.67Q54.41-30.67 52.46-29.77L52.46-29.77L52.46-29.77Q50.51-28.88 49.21-27.19L49.21-27.19L49.21-27.19Q47.92-25.50 47.28-23.03L47.28-23.03L47.28-23.03Q46.64-20.56 46.64-17.46L46.64-17.46L46.64-17.46Q46.64-11.25 49.21-7.78L49.21-7.78L49.21-7.78Q51.78-4.31 57.03-4.31ZM87.60-50.82L87.60-30.29L87.60-30.29Q89.84-32.67 92.56-34.09L92.56-34.09L92.56-34.09Q95.29-35.50 98.84-35.50L98.84-35.50L98.84-35.50Q101.71-35.50 103.90-34.55L103.90-34.55L103.90-34.55Q106.09-33.60 107.55-31.86L107.55-31.86L107.55-31.86Q109.02-30.12 109.78-27.67L109.78-27.67L109.78-27.67Q110.54-25.22 110.54-22.25L110.54-22.25L110.54 0L104.36 0L104.36-22.25L104.36-22.25Q104.36-26.22 102.55-28.41L102.55-28.41L102.55-28.41Q100.74-30.60 97.05-30.60L97.05-30.60L97.05-30.60Q94.32-30.60 91.96-29.29L91.96-29.29L91.96-29.29Q89.60-27.98 87.60-25.74L87.60-25.74L87.60 0L81.42 0L81.42-50.82L87.60-50.82ZM138.86-8.49L138.86-15.73L138.86-15.73Q134.62-15.59 131.63-15.06L131.63-15.06L131.63-15.06Q128.65-14.52 126.77-13.66L126.77-13.66L126.77-13.66Q124.89-12.80 124.04-11.63L124.04-11.63L124.04-11.63Q123.20-10.45 123.20-9.00L123.20-9.00L123.20-9.00Q123.20-7.62 123.65-6.62L123.65-6.62L123.65-6.62Q124.10-5.62 124.87-4.99L124.87-4.99L124.87-4.99Q125.65-4.35 126.70-4.05L126.70-4.05L126.70-4.05Q127.75-3.76 128.96-3.76L128.96-3.76L128.96-3.76Q130.58-3.76 131.93-4.09L131.93-4.09L131.93-4.09Q133.27-4.42 134.46-5.04L134.46-5.04L134.46-5.04Q135.65-5.66 136.74-6.52L136.74-6.52L136.74-6.52Q137.83-7.38 138.86-8.49L138.86-8.49ZM120.13-28.05L119.03-30.02L119.03-30.02Q121.92-32.81 125.27-34.19L125.27-34.19L125.27-34.19Q128.62-35.57 132.69-35.57L132.69-35.57L132.69-35.57Q135.62-35.57 137.90-34.60L137.90-34.60L137.90-34.60Q140.17-33.64 141.73-31.91L141.73-31.91L141.73-31.91Q143.28-30.19 144.07-27.74L144.07-27.74L144.07-27.74Q144.87-25.29 144.87-22.36L144.87-22.36L144.87 0L142.14 0L142.14 0Q141.24 0 140.76-0.29L140.76-0.29L140.76-0.29Q140.28-0.59 140.00-1.45L140.00-1.45L139.31-4.76L139.31-4.76Q137.93-3.48 136.62-2.50L136.62-2.50L136.62-2.50Q135.31-1.52 133.86-0.85L133.86-0.85L133.86-0.85Q132.41-0.17 130.77 0.19L130.77 0.19L130.77 0.19Q129.13 0.55 127.13 0.55L127.13 0.55L127.13 0.55Q125.10 0.55 123.30-0.02L123.30-0.02L123.30-0.02Q121.51-0.59 120.18-1.73L120.18-1.73L120.18-1.73Q118.85-2.86 118.08-4.61L118.08-4.61L118.08-4.61Q117.30-6.35 117.30-8.73L117.30-8.73L117.30-8.73Q117.30-10.80 118.44-12.71L118.44-12.71L118.44-12.71Q119.58-14.63 122.13-16.11L122.13-16.11L122.13-16.11Q124.68-17.60 128.79-18.54L128.79-18.54L128.79-18.54Q132.89-19.49 138.86-19.63L138.86-19.63L138.86-22.36L138.86-22.36Q138.86-26.43 137.10-28.51L137.10-28.51L137.10-28.51Q135.34-30.60 131.96-30.60L131.96-30.60L131.96-30.60Q129.69-30.60 128.15-30.03L128.15-30.03L128.15-30.03Q126.62-29.46 125.49-28.76L125.49-28.76L125.49-28.76Q124.37-28.05 123.56-27.48L123.56-27.48L123.56-27.48Q122.75-26.91 121.96-26.91L121.96-26.91L121.96-26.91Q121.34-26.91 120.89-27.24L120.89-27.24L120.89-27.24Q120.44-27.57 120.13-28.05L120.13-28.05ZM154.56-34.95L160.70-34.95L160.70 0L154.56 0L154.56-34.95ZM162.01-45.92L162.01-45.92L162.01-45.92Q162.01-45.02 161.65-44.25L161.65-44.25L161.65-44.25Q161.29-43.47 160.68-42.87L160.68-42.87L160.68-42.87Q160.08-42.26 159.27-41.92L159.27-41.92L159.27-41.92Q158.46-41.57 157.56-41.57L157.56-41.57L157.56-41.57Q156.66-41.57 155.89-41.92L155.89-41.92L155.89-41.92Q155.11-42.26 154.53-42.87L154.53-42.87L154.53-42.87Q153.94-43.47 153.59-44.25L153.59-44.25L153.59-44.25Q153.25-45.02 153.25-45.92L153.25-45.92L153.25-45.92Q153.25-46.82 153.59-47.63L153.59-47.63L153.59-47.63Q153.94-48.44 154.53-49.04L154.53-49.04L154.53-49.04Q155.11-49.65 155.89-49.99L155.89-49.99L155.89-49.99Q156.66-50.34 157.56-50.34L157.56-50.34L157.56-50.34Q158.46-50.34 159.27-49.99L159.27-49.99L159.27-49.99Q160.08-49.65 160.68-49.04L160.68-49.04L160.68-49.04Q161.29-48.44 161.65-47.63L161.65-47.63L161.65-47.63Q162.01-46.82 162.01-45.92ZM176.95-25.32L176.95-8.42L176.95-8.42Q178.64-6.14 180.66-5.21L180.66-5.21L180.66-5.21Q182.68-4.28 185.09-4.28L185.09-4.28L185.09-4.28Q190.03-4.28 192.65-7.76L192.65-7.76L192.65-7.76Q195.27-11.25 195.27-18.15L195.27-18.15L195.27-18.15Q195.27-24.56 192.94-27.58L192.94-27.58L192.94-27.58Q190.61-30.60 186.30-30.60L186.30-30.60L186.30-30.60Q183.30-30.60 181.07-29.22L181.07-29.22L181.07-29.22Q178.85-27.84 176.95-25.32L176.95-25.32ZM176.95-50.82L176.95-29.91L176.95-29.91Q179.16-32.46 181.94-33.98L181.94-33.98L181.94-33.98Q184.71-35.50 188.34-35.50L188.34-35.50L188.34-35.50Q191.41-35.50 193.87-34.33L193.87-34.33L193.87-34.33Q196.34-33.15 198.06-30.93L198.06-30.93L198.06-30.93Q199.79-28.70 200.70-25.53L200.70-25.53L200.70-25.53Q201.62-22.36 201.62-18.39L201.62-18.39L201.62-18.39Q201.62-14.15 200.58-10.66L200.58-10.66L200.58-10.66Q199.55-7.18 197.60-4.71L197.60-4.71L197.60-4.71Q195.65-2.24 192.86-0.88L192.86-0.88L192.86-0.88Q190.06 0.48 186.58 0.48L186.58 0.48L186.58 0.48Q183.13 0.48 180.76-0.81L180.76-0.81L180.76-0.81Q178.40-2.10 176.64-4.49L176.64-4.49L176.33-1.31L176.33-1.31Q176.05 0 174.74 0L174.74 0L170.78 0L170.78-50.82L176.95-50.82ZM217.52-23.81L225.46-23.81L225.46-23.81Q228.32-23.81 230.51-24.56L230.51-24.56L230.51-24.56Q232.70-25.32 234.20-26.69L234.20-26.69L234.20-26.69Q235.70-28.05 236.46-29.95L236.46-29.95L236.46-29.95Q237.22-31.84 237.22-34.12L237.22-34.12L237.22-34.12Q237.22-38.85 234.31-41.50L234.31-41.50L234.31-41.50Q231.39-44.16 225.46-44.16L225.46-44.16L217.52-44.16L217.52-23.81ZM210.86-49.44L225.46-49.44L225.46-49.44Q230.15-49.44 233.62-48.35L233.62-48.35L233.62-48.35Q237.08-47.27 239.36-45.26L239.36-45.26L239.36-45.26Q241.64-43.26 242.76-40.43L242.76-40.43L242.76-40.43Q243.88-37.61 243.88-34.12L243.88-34.12L243.88-34.12Q243.88-30.67 242.67-27.81L242.67-27.81L242.67-27.81Q241.47-24.94 239.14-22.87L239.14-22.87L239.14-22.87Q236.81-20.80 233.38-19.65L233.38-19.65L233.38-19.65Q229.94-18.49 225.46-18.49L225.46-18.49L217.52-18.49L217.52 0L210.86 0L210.86-49.44ZM282.76-43.99L258.99-43.99L258.99-26.70L279.31-26.70L279.31-21.25L258.99-21.25L258.99 0L252.30 0L252.30-49.44L282.76-49.44L282.76-43.99Z" fill="#ccc"></path></g></g><style>text {
  font-size: 64px;
  font-family: Arial Black;
  dominant-baseline: central;
  text-anchor: middle;
}</style></svg>